<svg xmlns="http://www.w3.org/2000/svg" width="830" height="622" fill="none"><path stroke="#4E887A" stroke-linecap="round" stroke-width="13" d="m634 88 14.797-14.603c5.842-5.764 15.231-5.764 21.072 0l4.262 4.206c5.841 5.764 15.23 5.764 21.072 0L710 63M715 100l14.797-14.603c5.842-5.764 15.231-5.764 21.072 0l4.262 4.206c5.841 5.764 15.23 5.764 21.072 0L791 75M7 603l14.797-14.602c5.842-5.765 15.231-5.765 21.073-.001l4.26 4.205c5.842 5.765 15.231 5.765 21.073.001L83 578M88 615l14.797-14.602c5.842-5.765 15.231-5.765 21.072-.001l4.262 4.205c5.841 5.765 15.23 5.765 21.072.001L164 590" opacity=".5"/><circle cx="787.5" cy="547.5" r="20.5" fill="#4E887A" opacity=".5"/><circle cx="780.5" cy="596.5" r="13.5" fill="#4E887A" opacity=".5"/><circle cx="819" cy="575" r="11" fill="#4E887A" opacity=".5"/><circle cx="158.5" cy="15.5" r="15.5" fill="#4E887A" opacity=".5"/><circle cx="153.5" cy="52.5" r="10.5" fill="#4E887A" opacity=".5"/><circle cx="182.5" cy="36.5" r="8.5" fill="#4E887A" opacity=".5"/></svg>